<?xml version="1.0" encoding="UTF-8"?>
<svg version="1.1" xmlns="http://www.w3.org/2000/svg" viewBox="0 0 240 300" >
<path d="M0 0 C4.45751112 2.27617589 5.71710049 5.12966329 7.3737793 9.75244141 C8.41379032 13.48512814 8.48892737 17.0816529 8.4375 20.9375 C8.42847656 21.76161377 8.41945312 22.58572754 8.41015625 23.43481445 C7.99728273 38.40578043 3.91813297 55.04000743 -6.2265625 66.51953125 C-11.2987023 71.04756878 -14.60224025 72.33028778 -21.37890625 72.30078125 C-25.35937983 71.84400559 -27.73865349 70.26876279 -31 68 C-32.24200752 73.3177215 -33.30834212 78.58201328 -34 84 C-24.62984041 83.45188227 -15.39393171 82.45731556 -6.09332275 81.21365356 C4.55314724 79.8091589 15.1198541 78.60743538 25.875 78.5625 C27.21884766 78.5478772 27.21884766 78.5478772 28.58984375 78.53295898 C34.52797801 78.61353787 34.52797801 78.61353787 36.71728516 80.40600586 C38.30146065 82.37461678 38.46201517 83.49300098 38.5 86 C38.5309375 86.680625 38.561875 87.36125 38.59375 88.0625 C38 90 38 90 35.8359375 91.55908203 C32.76365753 93.12008379 30.44426757 93.59711322 27.03125 93.9921875 C25.83725586 94.1375293 24.64326172 94.28287109 23.41308594 94.43261719 C22.12176758 94.57860352 20.83044922 94.72458984 19.5 94.875 C17.44322057 95.12061359 15.38698955 95.37051981 13.33074951 95.62060547 C11.87522148 95.79738725 10.41952828 95.97281379 8.96368408 96.14697266 C-0.94966078 97.3386386 -10.8369997 98.72759906 -20.7277832 100.09173584 C-23.05266498 100.4118376 -25.37786596 100.72952728 -27.703125 101.046875 C-28.74638947 101.19187943 -28.74638947 101.19187943 -29.81072998 101.33981323 C-32.57147272 101.71566357 -35.20928501 102 -38 102 C-38.0825 102.9075 -38.165 103.815 -38.25 104.75 C-39.10940349 108.47408179 -39.92290527 109.77765381 -43 112 C-45.5625 112.5 -45.5625 112.5 -48 112 C-49.8125 110.25 -49.8125 110.25 -51 108 C-51 106.68 -51 105.36 -51 104 C-57.20356807 105.20664633 -63.4067523 106.41524236 -69.60961914 107.62548828 C-71.71075687 108.03517731 -73.8119907 108.44437383 -75.91333008 108.85302734 C-89.3003582 111.45686029 -102.66438031 114.14398515 -116 117 C-116.12547714 117.59444412 -116.25095428 118.18888824 -116.38023376 118.80134583 C-120.54821897 138.12240377 -129.65681112 156.23658852 -144 170 C-144.66128906 170.64195312 -145.32257813 171.28390625 -146.00390625 171.9453125 C-151.76534165 176.64629395 -158.12665234 177.04377816 -165.30078125 176.578125 C-169.58961212 175.90785365 -171.93093063 175.05925152 -174.80078125 171.8203125 C-179.48331174 164.71262778 -179.67208195 158.3088023 -178 150 C-172.17083074 131.18768101 -159.34146856 117.98726511 -142.84863281 107.96923828 C-140.18784263 106.57418585 -137.39196802 105.90416431 -134.5 105.125 C-131.21599611 103.94897158 -129.51106615 102.92625494 -127.81054688 99.84423828 C-125.34012795 94.06576721 -123.56486755 88.07949353 -122 82 C-122.33 81.67 -122.66 81.34 -123 81 C-123.49628906 81.34933594 -123.99257812 81.69867188 -124.50390625 82.05859375 C-128.97406477 85.05283655 -132.4605031 87 -138 87 C-142.03923132 85.85555113 -144.27355968 84.89047523 -146.9375 81.625 C-151.20471374 67.06627076 -145.01199732 51.6340352 -140.25 37.875 C-138.38760661 32.48631944 -137.2993059 27.6868121 -137 22 C-130.75840203 20.65377299 -130.75840203 20.65377299 -127.125 22.3125 C-125 24 -125 24 -124 26 C-123.2435311 33.75380621 -126.16562881 40.72763008 -128.51171875 48.01953125 C-130.44458373 54.27570238 -131.38288469 59.44993689 -131 66 C-129.26424351 66.87436418 -129.26424351 66.87436418 -127 67 C-116.14710129 60.3727866 -112.49307974 42.44210956 -108.84326172 30.92822266 C-104.42879021 17.10971784 -104.42879021 17.10971784 -98.7590332 12.87670898 C-95.48887561 11.24684973 -92.64238733 11.06173538 -89 11 C-88.01 11.495 -88.01 11.495 -87 12 C-87.41664905 20.61064196 -89.58959122 28.58538046 -91.9296875 36.84375 C-92.3253291 38.26262425 -92.72026407 39.68169571 -93.11453247 41.10095215 C-94.14830284 44.81448769 -95.19207621 48.52513869 -96.23791504 52.23529053 C-97.08491294 55.24619849 -97.92500845 58.25901051 -98.76469231 61.27196503 C-105.82376254 86.60116127 -105.82376254 86.60116127 -109 97 C-107.71258911 96.75878418 -107.71258911 96.75878418 -106.39916992 96.51269531 C-87.3123357 92.95114057 -68.23437715 89.67604548 -49 87 C-47.75360701 83.34188725 -46.67219939 79.80912987 -46 76 C-46.70125 76.33 -47.4025 76.66 -48.125 77 C-51.39912675 78.13882669 -53.55706125 78.43036734 -57 78 C-59.69990662 76.20006226 -61.5418865 74.916227 -63 72 C-64.051875 73.6396875 -64.051875 73.6396875 -65.125 75.3125 C-67.65681121 78.82574365 -69.81612525 80.57748259 -74 82 C-79.87701949 82.62968066 -83.93435802 81.44639759 -88.56640625 77.75 C-92.42905943 73.03482664 -93.56887625 64.25047176 -93.28515625 58.3046875 C-91.10579268 40.69065317 -85.86985399 22.87936929 -71.69921875 11.2421875 C-68.7183253 9.0630516 -66.77771959 8.83959733 -63.125 8.8125 C-61.82949219 8.79123047 -61.82949219 8.79123047 -60.5078125 8.76953125 C-57.8758712 9.01140748 -56.26019456 9.67016459 -54 11 C-53.5875 10.360625 -53.175 9.72125 -52.75 9.0625 C-51 7 -51 7 -49.25 6.0625 C-45.70935302 5.9641487 -43.17241025 7.47480277 -40 9 C-39.85672725 14.42079741 -40.25481303 19.07839189 -41.49609375 24.39453125 C-41.64909439 25.0673967 -41.80209503 25.74026215 -41.95973206 26.43351746 C-42.44418741 28.56181418 -42.93958041 30.68731618 -43.4375 32.8125 C-45.54731584 41.84641385 -47.52646216 50.69615603 -48 60 C-45.50195658 59.32462816 -45.50195658 59.32462816 -43 58 C-41.95487968 56.01160795 -41.95487968 56.01160795 -41.62890625 53.57421875 C-41.36074097 52.181427 -41.36074097 52.181427 -41.0871582 50.76049805 C-40.914021 49.74640869 -40.74088379 48.73231934 -40.5625 47.6875 C-40.15164787 45.5207183 -39.74015986 43.3540571 -39.328125 41.1875 C-39.11607422 40.03121094 -38.90402344 38.87492187 -38.68554688 37.68359375 C-37.71611455 32.47462122 -36.67311118 27.28184996 -35.61108398 22.09106445 C-35.08422695 19.51573057 -34.56533149 16.93875338 -34.05493164 14.36010742 C-33.81637451 13.18295166 -33.57781738 12.0057959 -33.33203125 10.79296875 C-33.12296143 9.7464917 -32.9138916 8.70001465 -32.69848633 7.62182617 C-32 5 -32 5 -30 2 C-28.741875 2.12375 -27.48375 2.2475 -26.1875 2.375 C-25.12595703 2.47941406 -25.12595703 2.47941406 -24.04296875 2.5859375 C-22 3 -22 3 -19 5 C-19 5.99 -19 6.98 -19 8 C-17.88625 6.576875 -17.88625 6.576875 -16.75 5.125 C-12.29940501 -0.56187137 -6.84039418 -0.86615381 0 0 Z M-13.74609375 16.2578125 C-21.35302221 24.65529934 -23.73290305 35.38708438 -26.375 46.125 C-26.55506592 46.84743896 -26.73513184 47.56987793 -26.9206543 48.31420898 C-27.72890041 51.81358011 -28.36033827 54.59032097 -27 58 C-22.69158613 58.52756088 -19.83593771 58.35140812 -16.375 55.75 C-9.25289477 48.97999885 -6.38614048 37.48223058 -5.81640625 27.91796875 C-5.58201414 21.16391867 -5.58201414 21.16391867 -8 15 C-11.81772908 14.61033601 -11.81772908 14.61033601 -13.74609375 16.2578125 Z M-67.0078125 25.2265625 C-73.88699706 31.35038562 -77.40848748 40.90413487 -78.28125 49.8984375 C-78.52529861 57.02464301 -78.52529861 57.02464301 -75 63 C-73.18458523 64.32893256 -73.18458523 64.32893256 -71 64 C-62.84895821 58.35697107 -60.76511946 46.66415909 -58.1875 37.625 C-57.96835938 36.86421143 -57.74921875 36.10342285 -57.5234375 35.31958008 C-56.37288014 31.10473586 -55.75487779 27.41219981 -56 23 C-60.55124573 21.15105642 -63.20879624 22.63176271 -67.0078125 25.2265625 Z M-121 77 C-120 79 -120 79 -120 79 Z M-135 122 C-147.83793777 129.92662706 -159.42848588 138.87883792 -164 154 C-164.33931664 157.37777525 -164.33931664 157.37777525 -164 160 C-162.68 160.66 -161.36 161.32 -160 162 C-146.99146531 154.38524798 -139.84824161 139.40368611 -134.4609375 125.8203125 C-133.76855789 123.91864518 -133.76855789 123.91864518 -135 122 Z " fill="#FFFFFF" transform="translate(182,124)"/>
<path d="M0 0 C9.83016891 9.2701293 16.33190965 21.77395072 17.37109375 35.36328125 C17.63863355 51.59402895 12.76520353 64.62075334 1.5859375 76.41796875 C-9.32150128 86.74391241 -21.91302006 91.39856228 -36.83203125 91.70703125 C-41.9542309 91.3097562 -47.03895137 90.65197977 -51.921875 89 C-54.60842265 88.58795281 -55.83207125 89.46016333 -58.14453125 90.83203125 C-58.92957031 91.2909375 -59.71460937 91.74984375 -60.5234375 92.22265625 C-62.63907573 93.58296509 -64.59941136 95.03758337 -66.58203125 96.58203125 C-69.83203125 98.70703125 -69.83203125 98.70703125 -72.76953125 98.51953125 C-73.79046875 98.11734375 -73.79046875 98.11734375 -74.83203125 97.70703125 C-74.86023667 96.29049218 -74.87893827 94.87376529 -74.89453125 93.45703125 C-74.90742187 92.54050781 -74.9203125 91.62398438 -74.93359375 90.6796875 C-74.83203125 87.70703125 -74.83203125 87.70703125 -74.29296875 84.828125 C-73.41695909 79.91854845 -73.14967529 76.9337886 -75.62890625 72.4765625 C-76.80710952 70.80587876 -78.0364706 69.18495797 -79.28100586 67.56323242 C-86.61335005 57.96002358 -88.46091195 46.52259109 -87.61328125 34.640625 C-86.1374811 23.75659891 -82.07702919 13.97710084 -74.83203125 5.70703125 C-74.30480469 5.0521875 -73.77757813 4.39734375 -73.234375 3.72265625 C-54.5702329 -17.44371149 -21.05446958 -17.0468602 0 0 Z M-59.26953125 26.01953125 C-61.20372486 29.34634426 -61.52813622 30.91712641 -60.83203125 34.70703125 C-57.16632246 40.01770027 -53.39639809 42.34265767 -47.58203125 44.95703125 C-39.94587564 48.47934246 -39.94587564 48.47934246 -38.83203125 50.70703125 C-38.79203925 52.70663137 -38.78856326 54.70750367 -38.83203125 56.70703125 C-43.53885471 59.20753121 -46.76053476 58.77040955 -51.83203125 57.70703125 C-54.79388867 55.9299168 -54.9317888 54.3972578 -56.01953125 51.01953125 C-56.28765625 49.92640625 -56.55578125 48.83328125 -56.83203125 47.70703125 C-58.48203125 48.03703125 -60.13203125 48.36703125 -61.83203125 48.70703125 C-61.4527726 54.30109636 -61.13700724 57.74192179 -56.83203125 61.70703125 C-52.02333542 64.33820444 -48.28899387 65.29170582 -42.83203125 64.70703125 C-37.74811823 63.06983892 -34.50910821 61.41868669 -31.83203125 56.70703125 C-31.19726739 51.6289204 -31.80573815 48.78930747 -34.83203125 44.70703125 C-37.538411 42.93191103 -37.538411 42.93191103 -40.64453125 41.58203125 C-41.66160156 41.10507812 -42.67867187 40.628125 -43.7265625 40.13671875 C-44.75136719 39.66492188 -45.77617188 39.193125 -46.83203125 38.70703125 C-52.67413651 35.86492599 -52.67413651 35.86492599 -53.83203125 34.70703125 C-54.08203125 31.76953125 -54.08203125 31.76953125 -53.83203125 28.70703125 C-50.54104841 26.51304269 -49.98370544 26.49199461 -46.26953125 26.95703125 C-45.09197266 27.08851562 -45.09197266 27.08851562 -43.890625 27.22265625 C-41.83203125 27.70703125 -41.83203125 27.70703125 -39.83203125 29.70703125 C-38.7936056 32.02351924 -37.78983375 34.35606149 -36.83203125 36.70703125 C-35.51203125 36.37703125 -34.19203125 36.04703125 -32.83203125 35.70703125 C-32.47989378 32.00958776 -32.73591985 29.91126799 -34.33203125 26.51953125 C-38.03068506 22.35854571 -41.97596912 21.12499156 -47.39453125 20.33203125 C-52.1650705 21.06596037 -55.76873386 22.69826193 -59.26953125 26.01953125 Z M-6.83203125 20.70703125 C-11.84060213 29.26204363 -16.66643682 37.92211415 -21.42156982 46.62017822 C-22.07056778 47.80373131 -22.72312479 48.9853397 -23.37921143 50.16497803 C-24.31200015 51.84420969 -25.23050319 53.53135247 -26.1484375 55.21875 C-26.68927979 56.20319092 -27.23012207 57.18763184 -27.78735352 58.2019043 C-29.17793827 60.76431866 -29.17793827 60.76431866 -27.83203125 63.70703125 C-25.41860588 63.56490854 -25.41860588 63.56490854 -22.83203125 62.70703125 C-21.17682266 60.69541979 -21.17682266 60.69541979 -20 58.0703125 C-19.51490967 57.10657715 -19.02981934 56.1428418 -18.5300293 55.14990234 C-18.03156494 54.11687988 -17.53310059 53.08385742 -17.01953125 52.01953125 C-15.97005176 49.9127634 -14.91796923 47.80729022 -13.86328125 45.703125 C-13.35152344 44.67558105 -12.83976562 43.64803711 -12.3125 42.58935547 C-9.81277138 37.72263448 -6.95965749 33.08698384 -4.0625 28.44921875 C-2.65591578 25.31454535 -2.77786934 23.92251953 -3.83203125 20.70703125 C-4.82203125 20.70703125 -5.81203125 20.70703125 -6.83203125 20.70703125 Z " fill="#FFFFFF" transform="translate(172.83203125,13.29296875)"/>
<path d="M0 0 C3.28636404 1.43778427 5.70241762 3.24290115 8 6 C10.52418014 13.57254043 8.32640572 20.00273825 5 27 C-0.27464837 35.73186608 -7.09942045 41.18670594 -17 43.6875 C-17.928125 43.87699219 -18.85625 44.06648438 -19.8125 44.26171875 C-20.534375 44.50535156 -21.25625 44.74898437 -22 45 C-23.00496852 48.01490557 -23.10335303 50.04181692 -23.0625 53.1875 C-23.04896484 54.53908203 -23.04896484 54.53908203 -23.03515625 55.91796875 C-23.02355469 56.60503906 -23.01195312 57.29210937 -23 58 C-16.56663339 58.70182181 -13.33085992 57.50667867 -8.10546875 53.73828125 C-6.13953294 52.11519881 -4.42126656 50.42728167 -2.6875 48.5625 C-1.800625 47.716875 -0.91375 46.87125 0 46 C2.046875 46.07421875 2.046875 46.07421875 4 47 C5.15234375 48.890625 5.15234375 48.890625 5.9375 51.25 C6.21464844 52.01828125 6.49179688 52.7865625 6.77734375 53.578125 C7.08745319 56.95124525 5.98975287 58.31126067 4 61 C-2.32063151 67.9647723 -10.58758472 73.91456512 -20 75.5078125 C-24.42330873 75.68811041 -27.38414603 75.27993362 -31.4375 73.4375 C-37.32471283 67.83746829 -38.73692114 62.07772227 -39.25 54.125 C-38.91398473 37.38023915 -33.0551204 19.0551204 -21 7 C-13.94399962 0.9721964 -9.36040127 -0.77213151 0 0 Z M-8 13 C-13.69426826 16.07798285 -16.46057138 22.28410395 -19 28 C-19 28.99 -19 29.98 -19 31 C-13.54814227 29.6702786 -9.7737453 27.06552973 -6 23 C-4.35967554 20.29398703 -3.93845057 19.45136248 -4.375 16.25 C-4.58125 15.5075 -4.7875 14.765 -5 14 C-5.99 13.67 -6.98 13.34 -8 13 Z " fill="#FFFFFF" transform="translate(228,119)"/>
</svg>
